# xmcd
#
# Track frame offsets:
#	150
#	17462
#	33137
#	51062
#	67412
#	77837
#	96062
#	109712
#	122237
#	139862
#	156887
#	173012
#	185612
#	205112
#	222737
#	236237
#	248237
#	264212
#
# Disc length: 3762 seconds
#
# Revision: 3
# Processed by: cddbd v1.5.2PL0 Copyright (c) Steve Scherf et al.
# Submitted via: EasyCDDAExtractor 12.0.1.1
#
DISCID=000eb012
DTITLE=אושיק לוי - קצת שקט
DYEAR=1991
DGENRE=Ballad
TTITLE0=דע מאיפה באת
TTITLE1=חוזה לך ברח
TTITLE2=לישון לישון
TTITLE3=יונתן סע הביתה
TTITLE4=אין מילים
TTITLE5=קצת שקט
TTITLE6=דג צלופח
TTITLE7=לא יודעים
TTITLE8=אם אלוהים היה רוצה
TTITLE9=מה שלי - שלה
TTITLE10=בלדה לשוטר
TTITLE11=הולך ושר
TTITLE12=ציפור אחת ביד
TTITLE13=בת הים והמלך
TTITLE14=שיהיה לך טוב
TTITLE15=שתי אחיות 
TTITLE16=כץ
TTITLE17=הרץ למרחקים ארוכים
EXTD=
EXTT0=
EXTT1=
EXTT2=
EXTT3=
EXTT4=
EXTT5=
EXTT6=
EXTT7=
EXTT8=
EXTT9=
EXTT10=
EXTT11=
EXTT12=
EXTT13=
EXTT14=
EXTT15=
EXTT16=
EXTT17=
PLAYORDER=
